<svg xmlns="http://www.w3.org/2000/svg" viewBox="0 0 298.34 298.34"><title>ReVens by Jakib0y</title><g id="c2" data-name="ReVens"><g id="c1" data-name="c1"><circle cx="149.17" cy="149.17" r="149.17" style="fill:#bb252a"/><path d="M238,171.79c-1.43-2.69-2.81-5.08-4.12-7.17a50.13,50.13,0,0,0-4-5.57,28.34,28.34,0,0,0-4.17-4.12,20.07,20.07,0,0,0-4.75-2.78v-.36a44.17,44.17,0,0,0,12.24-4.62,34.73,34.73,0,0,0,9.24-7.53,32.43,32.43,0,0,0,5.87-10.18,36.76,36.76,0,0,0,2.06-12.55,32.68,32.68,0,0,0-3.18-14.8,31.13,31.13,0,0,0-8.47-10.59,37.39,37.39,0,0,0-12.07-6.36,45.88,45.88,0,0,0-14-2.16H194.41A5.43,5.43,0,0,0,189,88.43v.09A5.43,5.43,0,0,0,194.41,94h15.47q13.62,0,20.84,6.4T237.94,118a28.12,28.12,0,0,1-2.1,11.12,24.23,24.23,0,0,1-5.92,8.43,26,26,0,0,1-9.19,5.38,35.51,35.51,0,0,1-11.84,1.89H194.41a5.42,5.42,0,0,0-5.42,5.42h0a5.43,5.43,0,0,0,5.42,5.43h7.31a26.3,26.3,0,0,1,7.3.94,18.5,18.5,0,0,1,6.15,3.14,28.69,28.69,0,0,1,5.56,5.87,74.28,74.28,0,0,1,5.56,9.15l17.84,34a5.44,5.44,0,0,0,4.81,2.9h1.59a5.42,5.42,0,0,0,4.77-8Z" style="fill:#fff"/><path d="M163.76,102.91l-7.84,4.42a2.72,2.72,0,0,1-3.2-.42c-.82-.74-1.63-1.49-2.47-2.17a2.74,2.74,0,0,1-.79-3.13l3.42-8.31a2.75,2.75,0,0,0-1.06-3.47l-3.4-2.08a2.71,2.71,0,0,0-3.57.67L139,95.24a2.73,2.73,0,0,1-3.16.73c-1-.42-2-.83-3.07-1.22A2.79,2.79,0,0,1,131,92.06l.37-9a2.73,2.73,0,0,0-2.17-2.9l-3.9-.8a2.68,2.68,0,0,0-3.12,1.82L119,89.66a2.74,2.74,0,0,1-2.7,1.75c-1.08,0-2.19-.08-3.28-.08a2.74,2.74,0,0,1-2.61-1.9l-2.74-8.59a2.73,2.73,0,0,0-3-2l-4,.59a2.74,2.74,0,0,0-2.3,2.8v9.07a2.44,2.44,0,0,1-1.73,2.48s-2,.57-3.4,1.09A2.74,2.74,0,0,1,90.14,94l-5.5-7.13A2.77,2.77,0,0,0,81.09,86l-3.51,1.94a2.73,2.73,0,0,0-1.23,3.42l3,8.5a2.73,2.73,0,0,1-.94,3.09L75.84,105a2.77,2.77,0,0,1-3.23.22L65,100.38a2.75,2.75,0,0,0-3.62.45l-2.66,3a2.77,2.77,0,0,0,0,3.65l5.72,7a2.74,2.74,0,0,1,.18,3.22c-.43.72-1.35,2.29-1.8,3a2.7,2.7,0,0,1-3,1.09l-8.71-1.91A2.73,2.73,0,0,0,48,121.49l-1.46,3.74a2.69,2.69,0,0,0,1.26,3.38l7.75,4.6a2.74,2.74,0,0,1,1.27,2.95c-.24,1.07-.45,2.16-.65,3.23a2.73,2.73,0,0,1-2.31,2.24l-8.89,1.06a2.73,2.73,0,0,0-2.48,2.63l-.08,4a2.74,2.74,0,0,0,2.33,2.77l8.84,1.64a2.74,2.74,0,0,1,2.21,2.38c.11,1.08.28,2.16.5,3.26a2.75,2.75,0,0,1-1.41,2.91l-8,4.17a2.72,2.72,0,0,0-1.44,3.32l1.27,3.79a2.73,2.73,0,0,0,3.14,1.81l8.86-1.48a2.69,2.69,0,0,1,2.87,1.47c.52,1,1,1.94,1.57,2.89a2.76,2.76,0,0,1-.31,3.22l-6.06,6.65a2.76,2.76,0,0,0-.2,3.62l2.48,3.12a2.67,2.67,0,0,0,3.57.6L70.47,191a2.71,2.71,0,0,1,3.2.41c.81.75,1.63,1.5,2.47,2.17a2.76,2.76,0,0,1,.8,3.13l-3.43,8.32a2.74,2.74,0,0,0,1.07,3.47l3.4,2.08a2.7,2.7,0,0,0,3.56-.67l5.84-6.82a2.71,2.71,0,0,1,3.15-.73c1,.42,2,.83,3.07,1.22a2.77,2.77,0,0,1,1.83,2.68l-.37,9a2.72,2.72,0,0,0,2.18,2.89l3.9.81a2.69,2.69,0,0,0,3.12-1.83l3.15-8.45A2.74,2.74,0,0,1,110.1,207c1.09.06,2.2.08,3.29.09a2.72,2.72,0,0,1,2.6,1.89l2.75,8.59a2.71,2.71,0,0,0,3,2l4-.58a2.72,2.72,0,0,0,2.29-2.8l.1-9.06a2.47,2.47,0,0,1,1.63-2.43c1.2-.35,2-.63,3.4-1.14a2.72,2.72,0,0,1,3.1.89l5.5,7.13a2.77,2.77,0,0,0,3.55.84l3.51-1.93a2.75,2.75,0,0,0,1.24-3.43l-3-8.48a2.71,2.71,0,0,1,.93-3.09l2.6-2.08a2.75,2.75,0,0,1,3.23-.21l7.59,4.83a2.75,2.75,0,0,0,3.62-.44l2.66-3a2.75,2.75,0,0,0,0-3.64l-5.72-7a2.74,2.74,0,0,1-.18-3.22c.82-1.27,1.33-2.16,1.81-3a2.35,2.35,0,0,1,2.66-1.21l9,2a2.75,2.75,0,0,0,3.25-1.64l1.45-3.73a2.68,2.68,0,0,0-1.27-3.4l-7.75-4.6a2.76,2.76,0,0,1-1.27-3c.24-1.06.46-2.15.66-3.22a2.71,2.71,0,0,1,2.3-2.23l8.93-1.16A2.72,2.72,0,0,0,184,153l.08-4a2.73,2.73,0,0,0-2.33-2.77l-8.84-1.63a2.73,2.73,0,0,1-2.2-2.39c-.12-1.08-.29-2.17-.51-3.26a2.75,2.75,0,0,1,1.42-2.91l8-4.17a2.73,2.73,0,0,0,1.44-3.32l-1.27-3.78a2.76,2.76,0,0,0-3.15-1.82l-8.87,1.49a2.69,2.69,0,0,1-2.86-1.47c-.52-1-1-1.93-1.57-2.89a2.76,2.76,0,0,1,.31-3.22l6.05-6.65a2.75,2.75,0,0,0,.22-3.61l-2.5-3.13A2.8,2.8,0,0,0,163.76,102.91ZM73,121.3a5,5,0,0,1,.69-1.24,49.79,49.79,0,0,1,9-9.25,49,49,0,0,1,60.05-.79,5.45,5.45,0,0,1,1,7.64,6.1,6.1,0,0,1-.94,1l-28,22.33a5.47,5.47,0,0,1-5.43.8L76,128.38A5.44,5.44,0,0,1,73,121.3Zm41.22,70.42a5.44,5.44,0,0,1-4.56,6.2,4.9,4.9,0,0,1-1.43,0,49.1,49.1,0,0,1-43.67-55,5.43,5.43,0,0,1,6-4.76,5.23,5.23,0,0,1,1.4.35l33.42,13.39a5.45,5.45,0,0,1,3.36,4.23ZM158,129.14a49,49,0,0,1-14.2,58.36,50,50,0,0,1-11.22,6.79,5.44,5.44,0,0,1-7.17-2.8,5.52,5.52,0,0,1-.4-1.37l-5.43-35.54a5.46,5.46,0,0,1,2-5.07l28.07-22.37a5.47,5.47,0,0,1,8.35,2Z" style="fill:#fff"/></g></g></svg>